<svg width="24" height="21" viewBox="0 0 24 21" fill="none" xmlns="http://www.w3.org/2000/svg">
<path d="M1 4L2.84463 4.31926L3.69865 14.494C3.76694 15.3249 4.46133 15.9626 5.29496 15.9599H14.9695C15.765 15.9617 16.4399 15.3764 16.5525 14.5889L17.3941 8.77297C17.4881 8.12292 17.0367 7.51987 16.3876 7.42586C16.3308 7.41788 3.14083 7.41344 3.14083 7.41344" stroke="white" stroke-width="1.5" stroke-linecap="round" stroke-linejoin="round"/>
<path d="M11.0879 10.6912H13.5471" stroke="white" stroke-width="1.5" stroke-linecap="round" stroke-linejoin="round"/>
<path fill-rule="evenodd" clip-rule="evenodd" d="M4.90578 19.0342C5.17272 19.0342 5.38822 19.2506 5.38822 19.5166C5.38822 19.7836 5.17272 19.9999 4.90578 19.9999C4.63884 19.9999 4.42334 19.7836 4.42334 19.5166C4.42334 19.2506 4.63884 19.0342 4.90578 19.0342Z" fill="white" stroke="white" stroke-width="1.5" stroke-linecap="round" stroke-linejoin="round"/>
<path fill-rule="evenodd" clip-rule="evenodd" d="M14.9097 19.0342C15.1766 19.0342 15.393 19.2506 15.393 19.5166C15.393 19.7836 15.1766 19.9999 14.9097 19.9999C14.6427 19.9999 14.4272 19.7836 14.4272 19.5166C14.4272 19.2506 14.6427 19.0342 14.9097 19.0342Z" fill="white" stroke="white" stroke-width="1.5" stroke-linecap="round" stroke-linejoin="round"/>
<circle cx="17.5" cy="6.5" r="6.5" fill="#EE0034"/>
<path d="M15 6.68C15 5.52667 15.1933 4.62667 15.58 3.98C15.9733 3.32667 16.6467 3 17.6 3C18.5533 3 19.2233 3.32667 19.61 3.98C20.0033 4.62667 20.2 5.52667 20.2 6.68C20.2 7.84667 20.0033 8.76 19.61 9.42C19.2233 10.0733 18.5533 10.4 17.6 10.4C16.6467 10.4 15.9733 10.0733 15.58 9.42C15.1933 8.76 15 7.84667 15 6.68ZM19.08 6.68C19.08 6.14 19.0433 5.68333 18.97 5.31C18.9033 4.93667 18.7633 4.63333 18.55 4.4C18.3367 4.16 18.02 4.04 17.6 4.04C17.18 4.04 16.8633 4.16 16.65 4.4C16.4367 4.63333 16.2933 4.93667 16.22 5.31C16.1533 5.68333 16.12 6.14 16.12 6.68C16.12 7.24 16.1533 7.71 16.22 8.09C16.2867 8.47 16.4267 8.77667 16.64 9.01C16.86 9.24333 17.18 9.36 17.6 9.36C18.02 9.36 18.3367 9.24333 18.55 9.01C18.77 8.77667 18.9133 8.47 18.98 8.09C19.0467 7.71 19.08 7.24 19.08 6.68Z" fill="white"/>
</svg>
