<svg width="42" height="42" viewBox="0 0 42 42" fill="none" xmlns="http://www.w3.org/2000/svg">
<path d="M19.2188 1.625C17.125 2.90625 17.1875 5.71875 19.3438 7.09375C20.1562 7.59375 20.3438 7.9375 20.375 8.84375C20.375 9.9375 20.3438 9.96875 18.6875 10.3438C17.7812 10.5312 16.2188 11.1875 15.2812 11.75L13.5625 12.7812L12.8125 12.0312C12.125 11.3438 12.0625 11.1562 12.3438 10.0938C12.9688 7.78125 11.4688 6 8.96875 6C7.375 6 6 7.375 6 8.96875C6 11.4688 7.78125 12.9688 10.0938 12.3438C11.1562 12.0625 11.3438 12.125 12.0312 12.8125L12.7812 13.5625L11.75 15.2812C11.1875 16.2188 10.5312 17.7812 10.3438 18.6875C9.96875 20.3438 9.9375 20.375 8.84375 20.375C7.9375 20.3438 7.59375 20.1562 7.09375 19.3438C6.75 18.8125 6.0625 18.1562 5.5625 17.9062C3.6875 17 1 18.7812 1 20.9375C1 22.9375 3.0625 24.625 5.0625 24.25C5.9375 24.0625 7.5625 22.5625 7.5625 21.9062C7.5625 21.75 8.09375 21.625 8.75 21.625C9.96875 21.625 9.96875 21.625 10.3438 23.3125C10.5312 24.2188 11.1875 25.7812 11.75 26.7188L12.7812 28.4375L12.0312 29.1875C11.3438 29.875 11.1562 29.9375 10.0938 29.6562C7.78125 29.0312 6 30.5312 6 33.0312C6 34.625 7.375 36 8.96875 36C11.4688 36 12.9688 34.2188 12.3438 31.9062C12.0625 30.8438 12.125 30.6562 12.8125 29.9688L13.5625 29.2188L15.2812 30.25C16.2188 30.8125 17.7812 31.4688 18.6875 31.6562C20.3438 32.0312 20.375 32.0625 20.375 33.1562C20.3438 34.0625 20.1562 34.4062 19.3438 34.9062C18.8125 35.25 18.1562 35.9375 17.9062 36.4375C17 38.3125 18.7812 41 20.9375 41C22.9375 41 24.625 38.9375 24.25 36.9375C24.0625 36.0625 22.5625 34.4375 21.9062 34.4375C21.75 34.4375 21.625 33.9062 21.625 33.25C21.625 32.0312 21.625 32.0312 23.3125 31.6562C24.2188 31.4688 25.7812 30.8125 26.7188 30.25L28.4375 29.2188L29.1875 29.9688C29.875 30.6562 29.9375 30.8438 29.6562 31.9062C29.0312 34.2188 30.5312 36 33.0312 36C36.25 36 37.1562 31.4375 34.25 29.875C33.375 29.4062 33 29.375 31.9688 29.625C30.8438 29.9375 30.6562 29.9062 29.9688 29.1875L29.2188 28.4375L30.25 26.7188C30.8125 25.7812 31.4688 24.2188 31.6562 23.3125C32.0312 21.625 32.0312 21.625 33.25 21.625C33.9062 21.625 34.4375 21.75 34.4375 21.9062C34.4375 22.5625 36.0625 24.0625 36.9375 24.25C38.9375 24.625 41 22.9375 41 20.9375C41 18.7812 38.3125 17 36.4375 17.9062C35.9375 18.1562 35.25 18.8125 34.9062 19.3438C34.4062 20.1562 34.0625 20.3438 33.1562 20.375C32.0625 20.375 32.0312 20.3438 31.6562 18.6875C31.4688 17.7812 30.8125 16.2188 30.25 15.2812L29.2188 13.5625L29.9688 12.8125C30.6562 12.0938 30.8438 12.0625 31.9688 12.375C33 12.625 33.375 12.5938 34.25 12.125C37.1562 10.5625 36.25 6 33.0312 6C30.5312 6 29.0312 7.78125 29.6562 10.0938C29.9375 11.1562 29.875 11.3438 29.1875 12.0312L28.4375 12.7812L26.7188 11.75C25.7812 11.1875 24.2188 10.5312 23.3125 10.3438C21.625 9.96875 21.625 9.96875 21.625 8.75C21.625 8.09375 21.75 7.5625 21.9062 7.5625C22.5625 7.5625 24.0625 5.9375 24.25 5.0625C24.625 3.0625 22.9375 1 20.9375 1C20.5312 1 19.7812 1.28125 19.2188 1.625ZM21.9375 2.5625C23.4688 3.375 23.3438 5.78125 21.75 6.1875C19.25 6.8125 17.8125 3.84375 20 2.59375C20.6875 2.1875 21.2188 2.1875 21.9375 2.5625ZM10.8125 7.9375C11.5 8.90625 11.4375 9.75 10.625 10.5938C9.84375 11.4375 8.9375 11.5 7.9375 10.8125C7.09375 10.25 7 8.65625 7.78125 7.8125C8.5 7 10.2188 7.0625 10.8125 7.9375ZM34.1875 7.78125C35.375 8.84375 34.4375 11.3125 32.8125 11.3125C31.9375 11.3125 30.6875 10.125 30.6875 9.28125C30.6875 8.9375 30.9062 8.3125 31.1875 7.9375C31.75 7.09375 33.3438 7 34.1875 7.78125ZM25.2188 12.3438C28.6562 14.0938 30.5312 17.125 30.5 21C30.5 23.875 29.6875 25.9375 27.7812 27.8125C25.8125 29.7188 23.8438 30.5312 21 30.5312C17.125 30.5312 14.1562 28.6875 12.3125 25.2188C11.1875 23.0938 11.125 19.4375 12.1875 17.0938C14.4688 12.125 20.5 9.90625 25.2188 12.3438ZM5.21875 19.1875C6.71875 19.875 6.65625 22.2188 5.09375 22.875C4.0625 23.2812 3.09375 22.9375 2.5625 21.9375C2.0625 21.0312 2.1875 20.4062 3.03125 19.5938C3.875 18.7188 4.09375 18.6562 5.21875 19.1875ZM38.9688 19.5938C39.8125 20.4062 39.9375 21.0312 39.4375 21.9375C38.9062 22.9375 37.9375 23.2812 36.9062 22.875C35.4062 22.25 35.2812 19.875 36.6875 19.1875C37.7812 18.6875 38.1562 18.75 38.9688 19.5938ZM10.5938 31.375C11.4688 32.1875 11.5312 33.2812 10.6875 34.125C9.375 35.4375 7.25 34.5625 7.25 32.6875C7.25 30.875 9.21875 30.0938 10.5938 31.375ZM34.125 31.3125C35.4375 32.625 34.5625 34.75 32.6875 34.75C30.875 34.75 30.0938 32.7812 31.375 31.4062C32.1875 30.5312 33.2812 30.4688 34.125 31.3125ZM22.375 36.1562C23.4375 37.25 23.25 38.75 21.9062 39.4688C20.5312 40.1875 18.5 38.6875 18.9688 37.2812C19.4375 35.75 21.3438 35.125 22.375 36.1562Z" fill="#fff" stroke="#fff"/>
<path d="M18.25 16.4687C16.4375 17.0312 14.4375 18.4375 14.4375 19.1562C14.4375 19.9687 14.7812 19.9062 16.5938 18.6875C17.5 18.0625 18.7812 17.5 19.5938 17.375C21.75 17.0625 23.625 17.4687 25.4062 18.6875C27.2188 19.9062 27.5625 19.9687 27.5625 19.1562C27.5625 18.4062 25.5625 17.0312 23.625 16.4375C21.8125 15.9062 20.0312 15.9062 18.25 16.4687Z" fill="#fff" stroke="#fff"/>
<path d="M18.3439 19.0938C16.7814 19.8125 15.7501 20.875 16.2189 21.3438C16.4689 21.5938 16.9376 21.4063 17.9064 20.7813C18.9689 20.0938 19.5939 19.9063 21.0001 19.9063C22.4064 19.9063 23.0314 20.0938 24.0939 20.7813C25.0626 21.4063 25.5314 21.5938 25.7814 21.3438C26.6564 20.4688 23.3439 18.5 21.0001 18.5C20.2189 18.5 19.0314 18.7813 18.3439 19.0938Z" fill="#fff" stroke="#fff"/>
<path d="M19.1251 21.5312C17.9064 22.1562 17.4689 23.1875 18.4064 23.1875C18.7189 23.1875 19.2501 22.9688 19.5626 22.7188C19.9064 22.4688 20.5626 22.25 21.0001 22.25C21.4376 22.25 22.0939 22.4688 22.4376 22.7188C23.2189 23.3125 24.1251 23.3125 24.1251 22.7188C24.1251 21.4062 20.8751 20.625 19.1251 21.5312Z" fill="#fff" stroke="#fff"/>
<path d="M20 23.8437C19.625 24.0312 19.4375 24.5312 19.4375 25.25C19.4375 26.0937 19.5938 26.4062 20.2188 26.6875C21.1875 27.125 22.5312 26.5937 22.5938 25.7812C22.7188 23.875 21.5 22.9687 20 23.8437ZM21.3125 25.2187C21.3125 25.4687 21.1875 25.6875 21 25.6875C20.8438 25.6875 20.6875 25.4687 20.6875 25.2187C20.6875 24.9687 20.8438 24.75 21 24.75C21.1875 24.75 21.3125 24.9687 21.3125 25.2187Z" fill="#fff" stroke="#fff"/>
</svg>
