<svg width="49" height="42" viewBox="0 0 49 42" fill="none" xmlns="http://www.w3.org/2000/svg">
<path d="M5.88427 1.88887C4.7002 3.14693 4.81121 4.92303 6.18028 6.2181C7.25334 7.21716 7.25334 7.32816 7.36435 11.2504L7.47535 15.2836L9.54747 15.3946L11.6196 15.5056L11.9896 17.6887L12.3596 19.9088H9.73248C7.40135 19.9088 7.06833 19.7978 6.36529 18.9838C5.95827 18.4658 5.10722 17.9477 4.44119 17.8367C3.44213 17.6517 3.07211 17.7997 2.11006 18.7248C1.48103 19.3538 1 20.2419 1 20.7599C1 21.944 2.22107 23.461 3.40513 23.7571C4.47819 24.0161 6.32829 23.202 6.66131 22.314C6.84632 21.87 7.54936 21.7589 9.84348 21.7589H12.7666L13.3217 23.313C13.6177 24.2011 13.9877 25.2001 14.1357 25.5332C14.3577 26.0882 14.0247 26.1992 10.9165 26.2732L7.47535 26.3842L7.36435 30.6024C7.25334 34.7097 7.25334 34.8207 6.18028 35.8197C3.99716 37.8548 5.18123 41 8.10439 41C10.8425 41 11.9526 37.7438 9.88048 35.8197C8.80743 34.8207 8.77042 34.6727 8.77042 31.4165V28.0493H12.2116H15.6158L16.5038 29.3444C17.5399 30.8614 19.982 32.7115 22.7572 34.1176L24.7183 35.1167L27.2714 33.7476C28.8255 32.9336 30.6386 31.5645 31.8967 30.2324L33.9688 28.0493H37.299H40.5922V31.6015C40.5922 34.9687 40.5552 35.1907 39.6671 35.8937C37.632 37.4848 38.9641 41 41.6652 41C43.0343 41 44.6624 39.5939 44.6624 38.4469C44.6624 37.2998 43.8853 35.8567 43.1453 35.6347C42.5533 35.4497 42.4423 34.8947 42.3683 30.8984L42.2573 26.3842L38.6681 26.2732C36.6699 26.2362 35.0419 26.1252 35.0419 26.0512C35.0419 25.9402 35.4119 24.9781 35.8189 23.8311L36.6329 21.7589H39.5561C41.8132 21.7589 42.5163 21.87 42.7013 22.314C43.0343 23.202 44.8844 24.0161 45.9575 23.7571C47.1415 23.461 48.3626 21.944 48.3626 20.7599C48.3626 20.2419 47.8816 19.3538 47.2525 18.7248C46.2905 17.7997 45.9205 17.6517 44.9214 17.8367C44.2554 17.9477 43.4043 18.4658 42.9973 18.9838C42.2943 19.8348 41.9612 19.9088 39.5191 19.9088C37.151 19.9088 36.855 19.8348 37.04 19.2428C37.114 18.9098 37.299 17.9107 37.447 17.0597L37.706 15.5056L39.9631 15.3946L42.2573 15.2836L42.3683 10.9544C42.4423 7.14315 42.5533 6.58812 43.1453 6.40311C43.8853 6.1811 44.6624 4.73802 44.6624 3.59096C44.6624 2.40689 43.0343 1.03782 41.5912 1.03782C38.9641 1.03782 37.632 4.55301 39.6671 6.1441C40.5182 6.84714 40.5922 7.10615 40.5922 10.2513V13.6185H39.2971H38.002V11.3984V9.21527L35.1529 9.25227C31.5267 9.32627 30.0466 8.84525 27.0494 6.55112C25.7174 5.55207 24.5333 4.73802 24.4223 4.73802C24.3113 4.73802 23.4232 5.47806 22.4242 6.36611C20.13 8.43822 17.9469 9.17826 14.2467 9.17826H11.3606V11.3984V13.6185H10.0655H8.77042V10.3623C8.77042 7.25416 8.80743 7.10615 9.88048 6.10709C11.2126 4.84903 11.3236 3.40595 10.2135 1.99987C9.21445 0.7048 7.03133 0.667797 5.88427 1.88887ZM9.17745 3.29494C9.51046 3.96098 9.43646 4.21999 8.84443 4.81202C8.2524 5.40406 7.99338 5.47806 7.32735 5.14504C6.4763 4.66402 6.29129 3.66496 6.99433 2.96193C7.69737 2.25888 8.69642 2.4439 9.17745 3.29494ZM42.8493 3.29494C43.1823 3.96098 43.1083 4.21999 42.5163 4.81202C41.9242 5.40406 41.6652 5.47806 40.9992 5.14504C40.1481 4.66402 39.9631 3.66496 40.6662 2.96193C41.3692 2.25888 42.3683 2.4439 42.8493 3.29494ZM26.0504 7.92019C28.2705 9.58529 31.3047 10.7694 34.0058 10.9544C36.5219 11.1394 36.5589 11.1394 36.3739 12.1014C36.2629 12.6195 36.0779 14.2105 35.9669 15.6536C35.1529 23.8681 31.9707 29.5664 26.5684 32.3045L24.6443 33.2666L22.9422 32.4155C17.1699 29.5664 14.0247 23.461 13.0627 13.3225L12.8406 11.0284H14.4317C17.0589 11.0284 20.2781 9.99231 22.4612 8.47522C23.5712 7.66118 24.5703 6.99514 24.6443 6.99514C24.7183 6.95814 25.3473 7.40216 26.0504 7.92019ZM5.25523 20.2789C5.73626 21.796 3.66415 22.869 2.8871 21.4999C2.40608 20.5749 3.07211 19.5388 4.14517 19.5388C4.7002 19.5388 5.10722 19.7978 5.25523 20.2789ZM46.4755 20.2049C47.2155 21.6109 45.3284 22.832 44.2924 21.5739C44.0704 21.2779 43.9593 20.7229 44.1074 20.2789C44.4034 19.3538 45.9945 19.2798 46.4755 20.2049ZM8.91843 37.2628C10.1395 38.5949 8.2524 40.334 6.99433 39.0759C6.36529 38.4469 6.4393 37.4108 7.21634 36.9668C8.10439 36.4488 8.17839 36.4488 8.91843 37.2628ZM42.5903 37.2628C43.8113 38.5949 41.9242 40.334 40.6662 39.0759C40.0371 38.4469 40.1111 37.4108 40.8882 36.9668C41.7762 36.4488 41.8502 36.4488 42.5903 37.2628Z" fill="#fff" stroke="#fff"/>
<path d="M23.2751 15.8387C22.7941 16.0607 22.202 16.7637 21.906 17.4668C21.24 19.0209 21.573 20.2049 22.9791 21.315C23.7931 21.944 23.9411 22.351 23.9411 23.9421C23.9411 25.5702 24.0521 25.8292 24.6812 25.8292C25.3102 25.8292 25.4212 25.5702 25.4212 23.9421C25.4212 22.351 25.5692 21.944 26.4943 21.167C28.3074 19.6499 28.1223 17.0227 26.1242 16.0237C24.9402 15.3947 24.4962 15.3577 23.2751 15.8387ZM26.0132 18.2438C26.4203 19.8349 24.7552 20.945 23.6451 19.8349C23.1641 19.3539 23.0531 17.9848 23.4601 17.5778C23.5711 17.4298 24.1631 17.3188 24.7182 17.3188C25.5322 17.3188 25.8282 17.5408 26.0132 18.2438Z" fill="#fff" stroke="#fff"/>
</svg>
