<svg width="42" height="30" viewBox="0 0 42 30" fill="none" xmlns="http://www.w3.org/2000/svg">
<path d="M4.77293 1.73409C1.27779 6.01845 0 9.476 0 15.0006C0 20.5251 1.27779 23.9827 4.77293 28.2295C6.27621 30.0334 7.17818 30.4092 8.00498 29.5824C8.79421 28.7932 8.49355 27.7409 7.10301 26.1625C5.29907 24.2082 3.60788 20.4876 3.08173 17.4434C2.29251 12.896 3.94612 7.40899 7.25334 3.6132C8.75663 1.88442 8.94454 0.944868 7.92982 0.268391C7.02785 -0.332924 6.20104 0.0428982 4.77293 1.73409Z" fill="#fff"/>
<path d="M33.7106 0.418898C32.9214 1.20812 33.2221 2.11009 34.7254 3.87645C40.1372 10.1151 40.1372 19.8864 34.7629 26.0123C33.1093 27.8914 32.7711 29.4699 34.0113 29.8457C35.1388 30.1839 36.0783 29.4699 37.995 26.8391C40.6633 23.0433 41.678 19.8113 41.678 15.0008C41.678 10.1902 40.6633 6.95818 37.995 3.16239C35.8152 0.155823 34.6878 -0.558237 33.7106 0.418898Z" fill="#fff"/>
<path d="M13.0783 5.04093C11.0113 6.46905 8.83154 11.6178 8.83154 15.0378C8.83154 17.5933 10.1093 21.314 11.7629 23.4562C13.2662 25.4104 14.1306 25.899 15.0326 25.1473C15.897 24.4333 15.7091 23.6065 14.2809 21.8025C11.1241 17.8188 11.1241 12.1815 14.2809 8.19782C15.6715 6.43146 15.8594 5.64224 15.1453 4.92818C14.544 4.32687 14.0555 4.36445 13.0783 5.04093Z" fill="#fff"/>
<path d="M26.5705 4.92861C25.8188 5.68025 26.0443 6.54464 27.4349 8.27341C28.863 10.0774 29.8777 12.8584 29.8777 15.0006C29.8777 17.1428 28.863 19.9239 27.4349 21.7278C26.0067 23.5317 25.8188 24.4337 26.6832 25.1478C28.7127 26.839 32.8843 20.0366 32.8843 15.0006C32.8843 12.4074 31.6065 8.7244 29.9529 6.54464C28.4872 4.62795 27.3973 4.1018 26.5705 4.92861Z" fill="#fff"/>
<path d="M18.7916 12.9336C18.1903 13.4973 17.8521 14.2866 17.8521 15.0006C17.8521 15.7147 18.1903 16.5039 18.7916 17.0676C20.6331 18.9467 23.8652 17.6314 23.8652 15.0006C23.8652 14.2866 23.5269 13.4973 22.9256 12.9336C22.3619 12.3323 21.5727 11.9941 20.8586 11.9941C20.1446 11.9941 19.3553 12.3323 18.7916 12.9336Z" fill="#fff"/>
</svg>
