<svg width="43" height="35" viewBox="0 0 43 35" fill="none" xmlns="http://www.w3.org/2000/svg">
<path d="M5.56893 1.7931C4.80749 2.55453 4.80749 2.58626 4.87095 8.04319C4.96613 13.4684 4.96613 13.5319 5.69583 13.627L6.39381 13.7222V8.64599C6.39381 4.45811 6.48899 3.50632 6.90143 3.09388C7.3456 2.64971 9.24919 2.58626 23.0184 2.58626C35.011 2.58626 38.7547 2.68144 39.1671 2.96697C39.6748 3.34769 39.7065 4.36293 39.643 14.9595L39.5479 26.5397L27.8091 26.6983L16.0704 26.8569V27.6501C16.0704 28.3481 16.229 28.4432 17.276 28.5384L18.4498 28.6336V30.3468V32.0918L17.1808 32.2821C16.1021 32.4725 15.9117 32.5994 15.9117 33.2339V33.9954L23.1453 33.9319C30.0617 33.8367 30.3472 33.805 30.3472 33.2022C30.3472 32.758 30.0617 32.5359 29.2685 32.3773C27.9677 32.0918 27.6505 31.6793 27.6505 29.9661V28.6336L33.8688 28.5384L40.0872 28.4432L40.8486 27.5549L41.6101 26.6666V14.9278C41.6101 2.61798 41.5149 1.72964 40.1824 1.1903C39.8969 1.09512 32.1556 0.999939 23.0184 0.999939H6.36209L5.56893 1.7931ZM26.0642 30.5055V32.409H23.2088H20.3534V30.5055V28.6019H23.2088H26.0642V30.5055Z" fill="#1E1C5D" stroke="#1E1C5D"/>
<path d="M2.71322 15.9115C1.09518 16.546 1 17.1171 1 24.7314C1 32.0919 1.19036 33.3292 2.42769 33.8051C2.71322 33.9003 5.06098 33.9955 7.63081 33.9955C14.1664 33.9955 13.8175 34.4714 13.9444 25.6515C14.103 15.5942 14.103 15.5942 7.44045 15.6259C5.21961 15.6259 3.06221 15.7528 2.71322 15.9115ZM11.7235 17.8785C12.009 18.164 12.1042 20.1945 12.1042 25.0169C12.1042 31.3622 12.0725 31.7746 11.5014 32.0919C10.7083 32.5043 4.29954 32.5043 3.50638 32.0919C2.93531 31.7746 2.90358 31.3622 2.90358 24.8266C2.90358 21.0194 2.99876 17.815 3.12567 17.7199C3.50638 17.3074 11.3111 17.466 11.7235 17.8785Z" fill="#1E1C5D" stroke="#1E1C5D"/>
<path d="M6.93265 29.776C6.55194 30.1567 6.71057 31.0768 7.15474 31.2354C7.75754 31.4575 8.42379 30.6643 8.16998 30.0298C7.97962 29.5539 7.28164 29.3953 6.93265 29.776Z" fill="#1E1C5D" stroke="#1E1C5D"/>
<path d="M15.9111 22.0983V22.8914H26.8885H37.8341L37.7389 22.1617L37.6437 21.4637L26.7933 21.3686L15.9111 21.3051V22.0983Z" fill="#1E1C5D" stroke="#1E1C5D"/>
<path d="M22.4782 24.3826C22.0975 24.7316 22.2561 25.4296 22.732 25.6199C23.3665 25.8737 24.1597 25.2075 23.9376 24.6047C23.779 24.1605 22.8589 24.0019 22.4782 24.3826Z" fill="#1E1C5D" stroke="#1E1C5D"/>
</svg>
