<svg width="40" height="40" viewBox="0 0 40 40" fill="none" xmlns="http://www.w3.org/2000/svg">
<path d="M11.2338 0.434521C8.73359 1.34084 6.70219 3.93478 6.29591 6.71624C6.1709 7.62256 5.95213 8.1226 5.67086 8.1226C4.7958 8.1226 2.79564 9.37269 1.73306 10.6228C-0.204581 12.9042 -0.548357 16.0607 0.857999 18.7171L1.5143 19.9985L0.857999 21.2798C-0.548357 23.9363 -0.204581 27.0928 1.73306 29.3742C2.79564 30.6243 4.7958 31.8744 5.67086 31.8744C5.95213 31.8744 6.1709 32.3744 6.29591 33.2807C6.8272 37.156 10.0774 40 13.8902 40C15.4216 40 17.6093 38.9999 18.9531 37.7186L19.9532 36.7498L20.9845 37.7186C23.8597 40.5313 27.9538 40.7188 30.8915 38.1874C32.3916 36.906 33.2667 35.3747 33.548 33.3432C33.7042 32.3744 33.923 31.8744 34.2355 31.8744C35.1106 31.8744 37.1107 30.6243 38.1733 29.3742C40.111 27.0928 40.4547 23.9363 39.0484 21.2798L38.3921 19.9985L39.0484 18.7171C40.4547 16.0607 40.111 12.9042 38.1733 10.6228C37.1107 9.37269 35.1106 8.1226 34.2355 8.1226C33.923 8.1226 33.7042 7.62256 33.548 6.65374C33.2667 4.62233 32.3916 3.09097 30.8915 1.80962C28.0475 -0.659313 24.2348 -0.596809 21.3283 1.96589L19.9532 3.18473L18.5781 1.96589C16.4529 0.090744 13.734 -0.471798 11.2338 0.434521ZM16.5467 3.24723C18.7343 4.74734 18.7031 4.59108 18.7031 19.9985C18.7031 35.4059 18.7343 35.2496 16.5467 36.7498C14.9841 37.8123 12.4214 37.8123 10.8588 36.7498C9.60866 35.8747 8.70234 34.2808 8.70234 32.8745C8.70234 32.1244 8.8586 31.9056 9.57741 31.7181C11.5463 31.2181 13.2652 29.6555 12.8902 28.6554C12.5776 27.8428 11.6088 27.8428 10.4525 28.6866C8.98361 29.718 6.70219 29.9367 5.13957 29.2179C2.38936 27.9053 1.5143 24.1863 3.38944 21.6236C3.88948 20.9048 4.32701 20.186 4.32701 19.9985C4.32701 19.811 3.92073 19.0922 3.38944 18.3734C1.5143 15.8107 2.38936 12.0916 5.13957 10.779C6.70219 10.0602 8.98361 10.279 10.4525 11.3103C11.6088 12.1542 12.5776 12.1542 12.8902 11.3416C13.2652 10.3415 11.5463 8.7789 9.57741 8.27886C8.8586 8.09135 8.70234 7.87258 8.70234 7.12252C8.70234 4.49733 10.89 2.49717 13.7027 2.49717C15.0153 2.49717 15.7029 2.68469 16.5467 3.24723ZM29.0476 3.24723C30.4852 4.24731 31.204 5.74742 31.204 7.87258C31.204 9.77897 31.5478 10.3103 32.8604 10.3103C36.7044 10.3103 38.8921 15.1231 36.5169 18.3734C35.9856 19.0922 35.5794 19.811 35.5794 19.9985C35.5794 20.186 35.9856 20.9048 36.5169 21.6236C38.3608 24.1551 37.517 27.9053 34.8606 29.1867C34.2668 29.468 33.3604 29.6867 32.8604 29.6867C31.5478 29.6867 31.204 30.218 31.204 32.1244C31.204 35.4997 29.3289 37.4998 26.2037 37.4998C22.8284 37.4998 21.2033 35.5309 21.2033 31.4369V29.0617H22.4534C23.3597 29.0617 23.766 29.2179 24.016 29.6867C24.2035 30.0305 24.7661 30.5305 25.2661 30.7806C28.1413 32.2807 31.2665 29.718 30.2665 26.6865C29.8289 25.4364 28.3913 24.3738 27.0475 24.3738C25.9224 24.3738 24.4535 25.1551 24.016 25.9364C23.766 26.4052 23.3597 26.5615 22.4534 26.5615H21.2033V23.905V21.2486H24.016C26.4849 21.2486 26.86 21.3111 27.1412 21.8736C27.3287 22.2174 27.8913 22.7174 28.3913 22.9675C31.2665 24.4676 34.3918 21.9049 33.3917 18.8734C32.9542 17.6233 31.5166 16.5607 30.1727 16.5607C29.0476 16.5607 27.5788 17.342 27.1412 18.1234C26.86 18.6859 26.4849 18.7484 24.016 18.7484H21.2033V16.0919V13.4355H22.4534C23.3597 13.4355 23.766 13.5918 24.016 14.0605C24.4535 14.8419 25.9224 15.6232 27.0475 15.6232C28.3913 15.6232 29.8289 14.5606 30.2665 13.3105C31.2665 10.279 28.1413 7.71632 25.2661 9.21643C24.7661 9.46645 24.2035 9.96649 24.016 10.3103C23.766 10.779 23.3597 10.9353 22.4534 10.9353H21.2033V8.56013C21.2033 4.46607 22.8284 2.49717 26.2037 2.49717C27.5163 2.49717 28.2038 2.68469 29.0476 3.24723ZM27.7038 11.3103C28.2351 11.8416 28.1726 12.6542 27.5788 13.1542C26.6099 13.9668 25.3911 12.3729 26.2037 11.4041C26.6724 10.8416 27.2037 10.8103 27.7038 11.3103ZM30.829 19.1234C31.3603 19.6547 31.2978 20.4673 30.704 20.9673C29.7352 21.7799 28.5163 20.186 29.3289 19.2172C29.7977 18.6546 30.329 18.6234 30.829 19.1234ZM27.7038 26.9365C28.2351 27.4678 28.1726 28.2804 27.5788 28.7804C26.6099 29.593 25.3911 27.9991 26.2037 27.0303C26.6724 26.4677 27.2037 26.4365 27.7038 26.9365Z" fill="#8000FF"/>
</svg>
