<svg width="42" height="42" viewBox="0 0 42 42" fill="none" xmlns="http://www.w3.org/2000/svg">
<path d="M12.8444 1.36208C11.4657 2.14544 11.027 3.33614 11.027 6.37558V9.03899H10.1183C9.27229 9.03899 9.20962 8.94499 9.02162 7.47227C8.86495 6.25024 8.58294 5.65488 7.70558 4.80886C6.79688 3.86883 6.42087 3.71216 5.19883 3.71216C4.2588 3.71216 3.44411 3.9315 2.84876 4.37018C0.968698 5.68622 1.00003 5.37288 1.00003 22.1994C1.00003 39.2766 0.968698 39.0886 3.03676 40.3733C4.00813 40.9687 4.57214 41 18.7039 41C32.7417 41 33.3997 40.9687 34.3711 40.3733C35.4991 39.684 36.5331 37.9606 36.3765 37.0832C36.1571 36.0178 35.4991 36.2372 34.9664 37.5532C34.0891 39.778 34.2144 39.7466 18.7039 39.7466C3.53811 39.7466 3.2561 39.7153 2.59808 37.8666C1.47005 34.6078 3.1621 31.1297 5.57484 31.725C6.4522 31.9757 7.58024 33.1038 7.58024 33.7931C7.58024 34.5765 8.23826 35.1091 8.73961 34.7018C9.05295 34.4198 9.14696 31.913 9.14696 22.3247V10.2924H10.087H11.027V17.8753V25.4895L12.0297 27.9963C13.3144 31.255 13.6278 31.5997 15.2885 31.5997C16.7925 31.5997 17.3565 31.0984 16.5105 30.4717C15.9465 30.0643 15.9778 29.939 16.7612 27.9023L17.6072 25.8029V14.4285V3.08547L16.7612 2.14544C15.6958 0.986073 14.0978 0.672729 12.8444 1.36208ZM15.5392 2.80346C16.1972 3.33614 16.3538 3.71216 16.3538 4.84019V6.2189H14.3171H12.2804V5.31021C12.2804 3.9315 12.8131 2.80346 13.5964 2.45878C14.5991 2.08277 14.5991 2.08277 15.5392 2.80346ZM6.79688 5.74889L7.58024 6.50091V18.878V31.255L6.73421 30.785C5.60618 30.221 4.69748 30.221 3.31877 30.8163L2.22207 31.255L2.31607 18.878L2.41008 6.46958L3.28744 5.71755C4.44681 4.74619 5.82552 4.74619 6.79688 5.74889ZM16.3538 15.7759C16.3538 20.3507 16.2912 24.0795 16.2285 24.0795C16.1658 24.0795 15.8838 23.9855 15.6018 23.8915C15.1631 23.7348 15.1005 22.8888 15.1005 17.8126C15.1005 13.0498 15.0065 11.8904 14.6618 11.7651C14.4111 11.6711 14.1291 11.6711 14.0351 11.7651C13.9411 11.8904 13.8471 14.5538 13.8471 17.6873C13.8471 23.0454 13.8158 23.4528 13.2518 23.7661C12.9071 23.9228 12.5624 24.0795 12.4684 24.0795C12.2177 24.0795 12.2491 7.94229 12.4997 7.69162C12.5937 7.56628 13.5338 7.47227 14.5365 7.47227H16.3538V15.7759ZM15.7272 25.3328C16.3225 25.6462 16.2912 25.7089 15.5078 27.6202C15.0378 28.6856 14.5991 29.657 14.4738 29.8136C14.3485 29.939 13.9098 29.093 13.4398 27.9649C12.8131 26.3669 12.6877 25.7402 12.9384 25.4268C13.3458 24.9568 14.9125 24.8942 15.7272 25.3328Z" fill="#25CD44" stroke="#25CD44" stroke-width="0.5"/>
<path d="M25.8169 3.08551C25.3782 3.27351 25.0336 3.74353 24.9396 4.30755C24.7516 5.21624 24.6889 5.24758 24.0935 4.8089C23.0908 4.08821 22.5268 4.24488 21.3674 5.43558C20.3334 6.50095 20.3334 6.53228 20.8034 7.53498L21.2734 8.56901L20.3021 8.88236C19.4247 9.16437 19.3307 9.32104 19.2367 10.6997C19.1114 12.4231 19.5187 13.1125 20.6154 13.1125C21.3361 13.1125 21.3361 13.1125 20.8661 14.1779C20.3961 15.1179 20.3961 15.2746 20.8661 15.9952C21.1481 16.4339 21.7435 16.9666 22.1821 17.2173C22.8715 17.5933 23.1222 17.562 23.8742 17.1233C24.7516 16.6219 24.7516 16.6219 24.9396 17.5306C25.1589 18.69 26.2556 19.2227 27.791 18.9407C28.6997 18.7527 28.9504 18.5647 29.107 17.7813C29.2637 16.9039 29.9217 16.5593 30.2977 17.186C30.6737 17.7813 31.9271 17.4993 32.7731 16.5906C33.6505 15.6506 33.7132 15.0866 33.1178 13.6452C32.9611 13.2378 33.0551 13.1125 33.5252 13.1125C34.4965 13.1125 35.1545 12.2665 35.1545 10.9504C35.1545 9.66572 34.4339 8.72569 33.4625 8.72569C33.0551 8.72569 32.9611 8.56901 33.1178 8.16167C33.7132 6.75162 33.6505 6.18761 32.7731 5.24758C31.9271 4.33888 30.6737 4.05687 30.2977 4.65222C29.953 5.18491 29.201 4.9969 29.201 4.37022C29.201 3.11684 27.415 2.45882 25.8169 3.08551ZM28.0417 5.27891C28.2923 6.43828 29.483 6.84563 30.5797 6.12494C31.2691 5.65492 31.3631 5.65492 31.8644 6.21894C32.3345 6.75162 32.3345 6.84563 31.8644 7.59765C31.1438 8.66302 31.5198 9.60305 32.7418 9.91639C33.5252 10.1044 33.7445 10.3551 33.7445 10.9191C33.7445 11.4831 33.5252 11.7338 32.7418 11.9218C31.5198 12.2351 31.1438 13.1752 31.8644 14.2405C32.3345 14.9925 32.3345 15.0866 31.8331 15.6506C31.3318 16.1833 31.2691 16.2146 30.4544 15.7132C29.3577 15.0866 28.6057 15.3686 28.167 16.5593C27.6343 17.938 26.5376 17.844 25.9423 16.4026C25.4409 15.2119 24.7516 15.0239 23.6549 15.7759C23.0908 16.1833 22.9655 16.1519 22.4955 15.6819C22.0881 15.2119 22.0568 14.9299 22.3701 14.1465C22.8402 12.8931 22.5268 12.2038 21.3674 11.9845C20.5841 11.8278 20.4274 11.6398 20.4274 10.9191C20.4274 10.1984 20.5841 10.0104 21.3674 9.85372C22.5268 9.63438 22.8402 8.94503 22.3701 7.66032C22.0568 6.87696 22.0881 6.62629 22.4641 6.25027C22.8402 5.87426 23.0282 5.84293 23.6549 6.18761C24.9396 6.87696 25.6916 6.50095 26.1929 4.87156C26.2869 4.55822 26.6629 4.33888 27.1016 4.33888C27.697 4.33888 27.9163 4.55822 28.0417 5.27891Z" fill="#25CD44" stroke="#25CD44" stroke-width="0.5"/>
<path d="M25.472 7.40965C24.8767 7.69166 24.1246 8.31834 23.78 8.78836C22.9966 9.82239 22.9653 11.8591 23.686 12.9558C24.3753 13.9899 26.0047 14.9926 27.0074 14.9926C28.9501 14.9926 31.0809 12.8618 31.0809 10.9191C31.0809 9.69705 30.0468 8.03633 28.8561 7.40965C27.5401 6.68896 26.8194 6.68896 25.472 7.40965ZM28.6368 8.85103C29.9528 9.82239 29.8902 12.3918 28.5741 13.1125C27.5714 13.6452 26.0047 13.4572 25.2213 12.7365C23.6546 11.2638 24.7827 8.41235 26.9447 8.41235C27.5714 8.41235 28.3548 8.60035 28.6368 8.85103Z" fill="#25CD44" stroke="#25CD44" stroke-width="0.5"/>
<path d="M31.269 20.382C30.987 20.758 30.7677 21.2594 30.7677 21.4787C30.7677 21.8234 30.5483 21.792 29.7963 21.416C28.919 20.946 28.7623 20.946 28.0729 21.3847C27.6656 21.6667 27.1016 22.2307 26.8196 22.6381C26.3809 23.3274 26.3809 23.5154 26.7882 24.2675C27.2269 25.1135 27.1956 25.1448 26.2555 25.6148C25.3782 26.0848 25.2842 26.2415 25.2842 27.6516C25.2842 29.1869 25.4409 29.4376 26.7882 29.845C27.3209 30.033 27.3522 30.0643 26.8196 30.973C26.2555 31.8817 26.2869 31.9444 26.8822 32.7591C27.7596 33.9184 29.013 34.3571 29.9217 33.8244C30.2663 33.5738 30.611 33.5111 30.6737 33.6678C31.2377 35.2658 31.5824 35.5165 33.1178 35.5165C34.5591 35.5165 34.7158 35.4538 35.1545 34.5138C35.5305 33.7304 35.7498 33.5738 36.0945 33.7931C36.9405 34.3258 37.8492 34.1378 38.7266 33.1977C39.604 32.289 39.6353 32.0384 39.1966 30.3463C39.1026 30.0643 39.322 29.845 39.7606 29.7823C40.7947 29.6256 41.1707 28.9676 41.0453 27.4949C40.9513 26.3355 40.7947 26.0535 40.0113 25.6462C39.51 25.3955 39.0086 25.1448 38.9459 25.0822C38.8519 25.0508 38.9773 24.8315 39.1653 24.6435C39.8546 23.9541 39.604 22.6067 38.5699 21.7607C37.4732 20.8207 37.0972 20.758 36.2199 21.3847C35.6872 21.792 35.5932 21.7607 35.1545 20.852C34.7471 19.9747 34.5278 19.8493 33.2118 19.7553C31.9897 19.6613 31.6764 19.7866 31.269 20.382ZM34.0891 21.9487C34.4338 23.1394 35.4052 23.4528 36.6272 22.7947C37.2539 22.4501 37.4419 22.4814 37.8492 22.8887C38.2879 23.3274 38.2879 23.4528 37.8492 24.3301C37.2226 25.5522 37.4419 26.1475 38.7893 26.5862C39.604 26.8682 39.8546 27.1189 39.8546 27.6829C39.8546 28.2469 39.6353 28.4663 38.9146 28.6229C37.5986 28.9049 37.1599 29.845 37.8179 30.879C38.2879 31.5997 38.2879 31.6937 37.8179 32.2264C37.3166 32.7904 37.1912 32.7904 36.3765 32.3517C35.2172 31.7564 34.3398 32.195 34.0578 33.4797C33.9011 34.2004 33.6818 34.4198 33.0864 34.4198C32.4911 34.4198 32.2717 34.2318 32.1151 33.4797C31.8644 32.1324 31.0184 31.7564 29.7963 32.4144C28.8876 32.8531 28.7623 32.8531 28.3236 32.4144C27.9163 32.007 27.8849 31.819 28.2296 31.1923C28.8876 29.9703 28.5743 28.9989 27.4149 28.6543C26.0049 28.2783 25.9735 27.1189 27.3209 26.6175C28.4803 26.2102 28.7936 25.5208 28.3236 24.2675C28.0103 23.4841 28.0416 23.2334 28.4176 22.8574C28.7936 22.4814 28.9816 22.4501 29.6083 22.7947C30.705 23.3901 31.4884 23.1081 31.9897 21.9487C32.6164 20.57 33.7131 20.57 34.0891 21.9487Z" fill="#25CD44" stroke="#25CD44" stroke-width="0.5"/>
<path d="M31.0494 24.2988C29.89 25.0195 29.2007 26.3042 29.2007 27.8083C29.2007 29.5943 30.7047 31.255 32.5221 31.5057C36.6896 32.0697 38.7577 26.3982 35.1542 24.2675C34.0262 23.6408 32.1148 23.6408 31.0494 24.2988ZM34.5589 25.4268C35.9062 26.4609 36.0942 28.0589 35.0289 29.281C33.5248 31.067 30.4541 29.9077 30.4541 27.5576C30.4541 25.6775 33.1175 24.2988 34.5589 25.4268Z" fill="#25CD44" stroke="#25CD44" stroke-width="0.5"/>
<path d="M18.5474 30.973C18.5474 31.5684 18.7667 31.5997 21.3675 31.5997C23.9682 31.5997 24.1875 31.5684 24.1875 30.973C24.1875 30.3777 23.9682 30.3464 21.3675 30.3464C18.7667 30.3464 18.5474 30.3777 18.5474 30.973Z" fill="#25CD44" stroke="#25CD44" stroke-width="0.5"/>
<path d="M13.3458 33.3231C13.0325 34.1378 13.5652 34.4198 15.4452 34.4198C16.8553 34.4198 17.3566 34.2945 17.5133 33.9185C17.7953 33.1978 17.0433 32.8531 15.1632 32.8531C14.0038 32.8531 13.4711 32.9784 13.3458 33.3231Z" fill="#25CD44" stroke="#25CD44" stroke-width="0.5"/>
<path d="M19.5189 33.1351C19.2682 33.2918 19.1742 33.6364 19.2682 33.9185C19.4249 34.3258 19.9889 34.4198 22.1196 34.4198C23.561 34.4198 24.971 34.3258 25.253 34.2318C25.9111 33.9811 25.9111 33.2918 25.253 33.0411C24.501 32.7591 20.0202 32.8217 19.5189 33.1351Z" fill="#25CD44" stroke="#25CD44" stroke-width="0.5"/>
<path d="M13.2202 36.2998C13.2202 36.8952 13.4082 36.9265 20.4584 36.9265C27.164 36.9265 27.6653 36.8952 27.5713 36.3625C27.4773 35.8925 26.8506 35.8298 20.3331 35.7358C13.3769 35.6731 13.2202 35.6731 13.2202 36.2998Z" fill="#25CD44" stroke="#25CD44" stroke-width="0.5"/>
</svg>
