<svg width="206" height="40" viewBox="0 0 206 40" fill="none" xmlns="http://www.w3.org/2000/svg">
<path d="M51.0708 32.3393H63.4455V27.4666H51.0708V32.3393ZM51.0708 12.673H63.4455V7.8002H51.0708V12.673ZM51.0708 21.8226H62.7444V17.055H51.0708V21.8226ZM47.1445 7.8002V32.3393H52.8236V7.8002H47.1445Z" fill="white"/>
<path d="M78.5385 22.4536L72.5439 7.8002H65.6379L78.5385 33.8818L91.4741 7.8002H84.533L78.5385 22.4536Z" fill="white"/>
<path d="M97.9718 32.3393H110.347V27.4666H97.9718V32.3393ZM97.9718 12.673H110.347V7.8002H97.9718V12.673ZM97.9718 21.8226H109.645V17.055H97.9718V21.8226ZM94.0455 7.8002V32.3393H99.7246V7.8002H94.0455Z" fill="white"/>
<path d="M132.1 7.8002V21.6122L115.168 6.57324V32.3393H120.847V18.5273L137.814 33.5663V7.8002H132.1Z" fill="white"/>
<path d="M140.547 13.0936H147.277V32.3393H153.202V13.0936H159.968V7.8002H140.547V13.0936Z" fill="white"/>
<path d="M166.577 32.3393H178.952V27.4666H166.577V32.3393ZM166.577 12.673H178.952V7.8002H166.577V12.673ZM166.577 21.8226H178.251V17.055H166.577V21.8226ZM162.651 7.8002V32.3393H168.33V7.8002H162.651Z" fill="white"/>
<path d="M197.235 7.8002L193.309 14.9166L189.523 7.8002H182.196L189.733 19.7543L181.32 32.3393H188.646L193.274 24.1713L197.761 32.3393H205.088L196.849 19.7543L204.562 7.8002H197.235Z" fill="white"/>
<path d="M1.07284 17.8123C-0.598547 21.0687 -0.195771 23.9212 1.44469 25.5616C3.46704 27.7526 -0.128682 23.3706 13.13 15.337C23.737 8.91005 21.6881 2.43444 19.3378 0C19.3378 2.39371 18.3901 4.41966 16.8811 6.05274C12.3513 10.9548 4.12063 11.8744 1.07284 17.8123Z" fill="#EE0034"/>
<path d="M8.42196 24.3856C6.75057 27.6419 7.15335 30.4944 8.79381 32.1349C10.8162 34.3258 7.22044 29.9439 20.4791 21.9102C31.0861 15.4833 29.0372 9.00768 26.6869 6.57324C26.6869 8.96695 25.7392 10.9929 24.2302 12.626C19.7004 17.528 11.4698 18.4476 8.42196 24.3856Z" fill="#EE0034"/>
<path d="M15.7711 31.6883C14.0997 34.9447 14.5025 37.7971 16.1429 39.4376C18.1653 41.6286 14.5696 37.2466 27.8282 29.2129C38.4352 22.786 36.3864 16.3104 34.0361 13.876C34.0361 16.2697 33.0884 18.2956 31.5793 19.9287C27.0495 24.8307 18.8189 25.7504 15.7711 31.6883Z" fill="#EE0034"/>
</svg>
